<mxfile host="Electron" modified="2024-05-16T18:45:05.412Z" agent="Mozilla/5.0 (Windows NT 10.0; Win64; x64) AppleWebKit/537.36 (KHTML, like Gecko) draw.io/21.2.8 Chrome/112.0.5615.165 Electron/24.2.0 Safari/537.36" etag="LsXWZjoF5Iw7vxu4TS4u" version="21.2.8" type="device">
  <diagram name="PÃ¡gina-1" id="bSALjV_pGzcEyVL2jv8D">
    <mxGraphModel dx="1098" dy="1997" grid="1" gridSize="10" guides="1" tooltips="1" connect="1" arrows="1" fold="1" page="1" pageScale="1" pageWidth="827" pageHeight="1169" math="0" shadow="0">
      <root>
        <mxCell id="0" />
        <mxCell id="1" parent="0" />
        <mxCell id="-x42v0ed1FvRVQpBwGEQ-3" style="edgeStyle=orthogonalEdgeStyle;rounded=0;orthogonalLoop=1;jettySize=auto;html=1;exitX=1;exitY=0.5;exitDx=0;exitDy=0;entryX=0;entryY=0.5;entryDx=0;entryDy=0;" edge="1" parent="1" source="-x42v0ed1FvRVQpBwGEQ-1" target="-x42v0ed1FvRVQpBwGEQ-2">
          <mxGeometry relative="1" as="geometry" />
        </mxCell>
        <mxCell id="-x42v0ed1FvRVQpBwGEQ-12" style="edgeStyle=orthogonalEdgeStyle;rounded=0;orthogonalLoop=1;jettySize=auto;html=1;exitX=1;exitY=0;exitDx=0;exitDy=0;entryX=0;entryY=0.5;entryDx=0;entryDy=0;fillColor=#e51400;strokeColor=#B20000;" edge="1" parent="1" source="-x42v0ed1FvRVQpBwGEQ-1" target="-x42v0ed1FvRVQpBwGEQ-9">
          <mxGeometry relative="1" as="geometry" />
        </mxCell>
        <mxCell id="-x42v0ed1FvRVQpBwGEQ-1" value="Inicio" style="ellipse;whiteSpace=wrap;html=1;aspect=fixed;" vertex="1" parent="1">
          <mxGeometry x="150" y="200" width="80" height="80" as="geometry" />
        </mxCell>
        <mxCell id="-x42v0ed1FvRVQpBwGEQ-5" style="edgeStyle=orthogonalEdgeStyle;rounded=0;orthogonalLoop=1;jettySize=auto;html=1;exitX=1;exitY=0.5;exitDx=0;exitDy=0;entryX=0;entryY=0.5;entryDx=0;entryDy=0;" edge="1" parent="1" source="-x42v0ed1FvRVQpBwGEQ-2" target="-x42v0ed1FvRVQpBwGEQ-4">
          <mxGeometry relative="1" as="geometry" />
        </mxCell>
        <mxCell id="-x42v0ed1FvRVQpBwGEQ-7" style="edgeStyle=orthogonalEdgeStyle;rounded=0;orthogonalLoop=1;jettySize=auto;html=1;exitX=0.5;exitY=1;exitDx=0;exitDy=0;entryX=0;entryY=0.5;entryDx=0;entryDy=0;" edge="1" parent="1" source="-x42v0ed1FvRVQpBwGEQ-2" target="-x42v0ed1FvRVQpBwGEQ-6">
          <mxGeometry relative="1" as="geometry" />
        </mxCell>
        <mxCell id="-x42v0ed1FvRVQpBwGEQ-16" style="edgeStyle=orthogonalEdgeStyle;rounded=0;orthogonalLoop=1;jettySize=auto;html=1;exitX=0;exitY=1;exitDx=0;exitDy=0;entryX=0;entryY=0.5;entryDx=0;entryDy=0;" edge="1" parent="1" source="-x42v0ed1FvRVQpBwGEQ-2" target="-x42v0ed1FvRVQpBwGEQ-15">
          <mxGeometry relative="1" as="geometry" />
        </mxCell>
        <mxCell id="-x42v0ed1FvRVQpBwGEQ-2" value="A" style="ellipse;whiteSpace=wrap;html=1;aspect=fixed;" vertex="1" parent="1">
          <mxGeometry x="320" y="200" width="80" height="80" as="geometry" />
        </mxCell>
        <mxCell id="-x42v0ed1FvRVQpBwGEQ-8" style="edgeStyle=orthogonalEdgeStyle;rounded=0;orthogonalLoop=1;jettySize=auto;html=1;exitX=0.5;exitY=1;exitDx=0;exitDy=0;entryX=1;entryY=0.5;entryDx=0;entryDy=0;" edge="1" parent="1" source="-x42v0ed1FvRVQpBwGEQ-4" target="-x42v0ed1FvRVQpBwGEQ-6">
          <mxGeometry relative="1" as="geometry" />
        </mxCell>
        <mxCell id="-x42v0ed1FvRVQpBwGEQ-4" value="B" style="ellipse;whiteSpace=wrap;html=1;aspect=fixed;" vertex="1" parent="1">
          <mxGeometry x="480" y="200" width="80" height="80" as="geometry" />
        </mxCell>
        <mxCell id="-x42v0ed1FvRVQpBwGEQ-26" style="edgeStyle=orthogonalEdgeStyle;rounded=0;orthogonalLoop=1;jettySize=auto;html=1;exitX=0.5;exitY=1;exitDx=0;exitDy=0;entryX=0;entryY=1;entryDx=0;entryDy=0;" edge="1" parent="1" source="-x42v0ed1FvRVQpBwGEQ-6" target="-x42v0ed1FvRVQpBwGEQ-22">
          <mxGeometry relative="1" as="geometry">
            <Array as="points">
              <mxPoint x="862" y="420" />
            </Array>
          </mxGeometry>
        </mxCell>
        <mxCell id="-x42v0ed1FvRVQpBwGEQ-6" value="C" style="ellipse;whiteSpace=wrap;html=1;aspect=fixed;" vertex="1" parent="1">
          <mxGeometry x="400" y="340" width="80" height="80" as="geometry" />
        </mxCell>
        <mxCell id="-x42v0ed1FvRVQpBwGEQ-11" style="edgeStyle=orthogonalEdgeStyle;rounded=0;orthogonalLoop=1;jettySize=auto;html=1;exitX=1;exitY=0.5;exitDx=0;exitDy=0;entryX=0;entryY=0.5;entryDx=0;entryDy=0;fillColor=#e51400;strokeColor=#B20000;" edge="1" parent="1" source="-x42v0ed1FvRVQpBwGEQ-9" target="-x42v0ed1FvRVQpBwGEQ-10">
          <mxGeometry relative="1" as="geometry" />
        </mxCell>
        <mxCell id="-x42v0ed1FvRVQpBwGEQ-9" value="E" style="ellipse;whiteSpace=wrap;html=1;aspect=fixed;" vertex="1" parent="1">
          <mxGeometry x="320" y="50" width="80" height="80" as="geometry" />
        </mxCell>
        <mxCell id="-x42v0ed1FvRVQpBwGEQ-14" style="edgeStyle=orthogonalEdgeStyle;rounded=0;orthogonalLoop=1;jettySize=auto;html=1;exitX=1;exitY=0.5;exitDx=0;exitDy=0;entryX=0;entryY=0.5;entryDx=0;entryDy=0;fillColor=#e51400;strokeColor=#B20000;" edge="1" parent="1" source="-x42v0ed1FvRVQpBwGEQ-10" target="-x42v0ed1FvRVQpBwGEQ-13">
          <mxGeometry relative="1" as="geometry" />
        </mxCell>
        <mxCell id="-x42v0ed1FvRVQpBwGEQ-18" style="edgeStyle=orthogonalEdgeStyle;rounded=0;orthogonalLoop=1;jettySize=auto;html=1;exitX=0.5;exitY=0;exitDx=0;exitDy=0;entryX=0.5;entryY=1;entryDx=0;entryDy=0;" edge="1" parent="1" source="-x42v0ed1FvRVQpBwGEQ-10" target="-x42v0ed1FvRVQpBwGEQ-17">
          <mxGeometry relative="1" as="geometry" />
        </mxCell>
        <mxCell id="-x42v0ed1FvRVQpBwGEQ-20" style="edgeStyle=orthogonalEdgeStyle;rounded=0;orthogonalLoop=1;jettySize=auto;html=1;exitX=1;exitY=1;exitDx=0;exitDy=0;entryX=0;entryY=0.5;entryDx=0;entryDy=0;" edge="1" parent="1" source="-x42v0ed1FvRVQpBwGEQ-10" target="-x42v0ed1FvRVQpBwGEQ-19">
          <mxGeometry relative="1" as="geometry" />
        </mxCell>
        <mxCell id="-x42v0ed1FvRVQpBwGEQ-10" value="D" style="ellipse;whiteSpace=wrap;html=1;aspect=fixed;" vertex="1" parent="1">
          <mxGeometry x="480" y="50" width="80" height="80" as="geometry" />
        </mxCell>
        <mxCell id="-x42v0ed1FvRVQpBwGEQ-78" style="edgeStyle=orthogonalEdgeStyle;rounded=0;orthogonalLoop=1;jettySize=auto;html=1;exitX=0.5;exitY=1;exitDx=0;exitDy=0;entryX=0.5;entryY=0;entryDx=0;entryDy=0;fillColor=#e51400;strokeColor=#B20000;" edge="1" parent="1" source="-x42v0ed1FvRVQpBwGEQ-13" target="-x42v0ed1FvRVQpBwGEQ-19">
          <mxGeometry relative="1" as="geometry" />
        </mxCell>
        <mxCell id="-x42v0ed1FvRVQpBwGEQ-13" value="F" style="ellipse;whiteSpace=wrap;html=1;aspect=fixed;" vertex="1" parent="1">
          <mxGeometry x="660" y="50" width="80" height="80" as="geometry" />
        </mxCell>
        <mxCell id="-x42v0ed1FvRVQpBwGEQ-25" style="edgeStyle=orthogonalEdgeStyle;rounded=0;orthogonalLoop=1;jettySize=auto;html=1;exitX=1;exitY=0.5;exitDx=0;exitDy=0;entryX=0.5;entryY=1;entryDx=0;entryDy=0;" edge="1" parent="1" source="-x42v0ed1FvRVQpBwGEQ-15" target="-x42v0ed1FvRVQpBwGEQ-22">
          <mxGeometry relative="1" as="geometry" />
        </mxCell>
        <mxCell id="-x42v0ed1FvRVQpBwGEQ-15" value="G" style="ellipse;whiteSpace=wrap;html=1;aspect=fixed;" vertex="1" parent="1">
          <mxGeometry x="400" y="480" width="80" height="80" as="geometry" />
        </mxCell>
        <mxCell id="-x42v0ed1FvRVQpBwGEQ-23" style="edgeStyle=orthogonalEdgeStyle;rounded=0;orthogonalLoop=1;jettySize=auto;html=1;exitX=1;exitY=0.5;exitDx=0;exitDy=0;entryX=0.5;entryY=0;entryDx=0;entryDy=0;" edge="1" parent="1" source="-x42v0ed1FvRVQpBwGEQ-17" target="-x42v0ed1FvRVQpBwGEQ-22">
          <mxGeometry relative="1" as="geometry" />
        </mxCell>
        <mxCell id="-x42v0ed1FvRVQpBwGEQ-17" value="H" style="ellipse;whiteSpace=wrap;html=1;aspect=fixed;" vertex="1" parent="1">
          <mxGeometry x="480" y="-80" width="80" height="80" as="geometry" />
        </mxCell>
        <mxCell id="-x42v0ed1FvRVQpBwGEQ-24" style="edgeStyle=orthogonalEdgeStyle;rounded=0;orthogonalLoop=1;jettySize=auto;html=1;exitX=1;exitY=0.5;exitDx=0;exitDy=0;entryX=0;entryY=0.5;entryDx=0;entryDy=0;fillColor=#e51400;strokeColor=#B20000;" edge="1" parent="1" source="-x42v0ed1FvRVQpBwGEQ-19" target="-x42v0ed1FvRVQpBwGEQ-22">
          <mxGeometry relative="1" as="geometry" />
        </mxCell>
        <mxCell id="-x42v0ed1FvRVQpBwGEQ-19" value="I" style="ellipse;whiteSpace=wrap;html=1;aspect=fixed;" vertex="1" parent="1">
          <mxGeometry x="660" y="190" width="80" height="80" as="geometry" />
        </mxCell>
        <mxCell id="-x42v0ed1FvRVQpBwGEQ-22" value="Fin" style="ellipse;whiteSpace=wrap;html=1;aspect=fixed;" vertex="1" parent="1">
          <mxGeometry x="850" y="190" width="80" height="80" as="geometry" />
        </mxCell>
        <mxCell id="-x42v0ed1FvRVQpBwGEQ-29" value="0&lt;span style=&quot;white-space: pre;&quot;&gt;	&lt;/span&gt;&lt;span style=&quot;white-space: pre;&quot;&gt;	&lt;/span&gt;0" style="text;html=1;strokeColor=none;fillColor=none;align=center;verticalAlign=middle;whiteSpace=wrap;rounded=0;" vertex="1" parent="1">
          <mxGeometry x="160" y="170" width="60" height="30" as="geometry" />
        </mxCell>
        <mxCell id="-x42v0ed1FvRVQpBwGEQ-30" value="0&lt;span style=&quot;white-space: pre;&quot;&gt;	&lt;/span&gt;&lt;span style=&quot;white-space: pre;&quot;&gt;	&lt;/span&gt;3" style="text;html=1;strokeColor=none;fillColor=none;align=center;verticalAlign=middle;whiteSpace=wrap;rounded=0;" vertex="1" parent="1">
          <mxGeometry x="330" y="170" width="60" height="30" as="geometry" />
        </mxCell>
        <mxCell id="-x42v0ed1FvRVQpBwGEQ-31" value="3&lt;span style=&quot;white-space: pre;&quot;&gt;	&lt;/span&gt;&lt;span style=&quot;white-space: pre;&quot;&gt;	&lt;/span&gt;5" style="text;html=1;strokeColor=none;fillColor=none;align=center;verticalAlign=middle;whiteSpace=wrap;rounded=0;" vertex="1" parent="1">
          <mxGeometry x="490" y="170" width="60" height="30" as="geometry" />
        </mxCell>
        <mxCell id="-x42v0ed1FvRVQpBwGEQ-32" value="0&lt;span style=&quot;white-space: pre;&quot;&gt;	&lt;/span&gt;&lt;span style=&quot;white-space: pre;&quot;&gt;	&lt;/span&gt;3" style="text;html=1;strokeColor=none;fillColor=none;align=center;verticalAlign=middle;whiteSpace=wrap;rounded=0;" vertex="1" parent="1">
          <mxGeometry x="330" y="20" width="60" height="30" as="geometry" />
        </mxCell>
        <mxCell id="-x42v0ed1FvRVQpBwGEQ-33" value="5&lt;span style=&quot;white-space: pre;&quot;&gt;	&lt;/span&gt;&lt;span style=&quot;white-space: pre;&quot;&gt;	&lt;/span&gt;6" style="text;html=1;strokeColor=none;fillColor=none;align=center;verticalAlign=middle;whiteSpace=wrap;rounded=0;" vertex="1" parent="1">
          <mxGeometry x="410" y="310" width="60" height="30" as="geometry" />
        </mxCell>
        <mxCell id="-x42v0ed1FvRVQpBwGEQ-35" value="3&lt;span style=&quot;white-space: pre;&quot;&gt;	&lt;/span&gt;&lt;span style=&quot;white-space: pre;&quot;&gt;	&lt;/span&gt;4" style="text;html=1;strokeColor=none;fillColor=none;align=center;verticalAlign=middle;whiteSpace=wrap;rounded=0;" vertex="1" parent="1">
          <mxGeometry x="490" y="30" width="60" height="30" as="geometry" />
        </mxCell>
        <mxCell id="-x42v0ed1FvRVQpBwGEQ-36" value="4&lt;span style=&quot;white-space: pre;&quot;&gt;	&lt;/span&gt;&lt;span style=&quot;white-space: pre;&quot;&gt;	&lt;/span&gt;5" style="text;html=1;strokeColor=none;fillColor=none;align=center;verticalAlign=middle;whiteSpace=wrap;rounded=0;" vertex="1" parent="1">
          <mxGeometry x="670" y="30" width="60" height="30" as="geometry" />
        </mxCell>
        <mxCell id="-x42v0ed1FvRVQpBwGEQ-37" value="3&lt;span style=&quot;white-space: pre;&quot;&gt;	&lt;/span&gt;&lt;span style=&quot;white-space: pre;&quot;&gt;	&lt;/span&gt;5" style="text;html=1;strokeColor=none;fillColor=none;align=center;verticalAlign=middle;whiteSpace=wrap;rounded=0;" vertex="1" parent="1">
          <mxGeometry x="410" y="450" width="60" height="30" as="geometry" />
        </mxCell>
        <mxCell id="-x42v0ed1FvRVQpBwGEQ-38" value="4&lt;span style=&quot;white-space: pre;&quot;&gt;	&lt;/span&gt;&lt;span style=&quot;white-space: pre;&quot;&gt;	&lt;/span&gt;6" style="text;html=1;strokeColor=none;fillColor=none;align=center;verticalAlign=middle;whiteSpace=wrap;rounded=0;" vertex="1" parent="1">
          <mxGeometry x="490" y="-110" width="60" height="30" as="geometry" />
        </mxCell>
        <mxCell id="-x42v0ed1FvRVQpBwGEQ-40" value="8&lt;span style=&quot;white-space: pre;&quot;&gt;	&lt;/span&gt;&lt;span style=&quot;white-space: pre;&quot;&gt;	&lt;/span&gt;8" style="text;html=1;strokeColor=none;fillColor=none;align=center;verticalAlign=middle;whiteSpace=wrap;rounded=0;" vertex="1" parent="1">
          <mxGeometry x="860" y="160" width="60" height="30" as="geometry" />
        </mxCell>
        <mxCell id="-x42v0ed1FvRVQpBwGEQ-41" value="8&lt;span style=&quot;white-space: pre;&quot;&gt;	&lt;/span&gt;&lt;span style=&quot;white-space: pre;&quot;&gt;	&lt;/span&gt;" style="text;html=1;strokeColor=none;fillColor=none;align=center;verticalAlign=middle;whiteSpace=wrap;rounded=0;" vertex="1" parent="1">
          <mxGeometry x="860" y="280" width="60" height="30" as="geometry" />
        </mxCell>
        <mxCell id="-x42v0ed1FvRVQpBwGEQ-42" value="5&lt;span style=&quot;white-space: pre;&quot;&gt;	&lt;/span&gt;&lt;span style=&quot;white-space: pre;&quot;&gt;	&lt;/span&gt;8" style="text;html=1;strokeColor=none;fillColor=none;align=center;verticalAlign=middle;whiteSpace=wrap;rounded=0;" vertex="1" parent="1">
          <mxGeometry x="670" y="270" width="60" height="30" as="geometry" />
        </mxCell>
        <mxCell id="-x42v0ed1FvRVQpBwGEQ-43" value="&amp;nbsp;4&lt;span style=&quot;white-space: pre;&quot;&gt;	&lt;/span&gt;&lt;span style=&quot;white-space: pre;&quot;&gt;	&lt;/span&gt;5" style="text;html=1;strokeColor=none;fillColor=none;align=center;verticalAlign=middle;whiteSpace=wrap;rounded=0;" vertex="1" parent="1">
          <mxGeometry x="490" y="130" width="60" height="30" as="geometry" />
        </mxCell>
        <mxCell id="-x42v0ed1FvRVQpBwGEQ-45" value="5&lt;span style=&quot;white-space: pre;&quot;&gt;	&lt;/span&gt;&lt;span style=&quot;white-space: pre;&quot;&gt;	&lt;/span&gt;8" style="text;html=1;strokeColor=none;fillColor=none;align=center;verticalAlign=middle;whiteSpace=wrap;rounded=0;" vertex="1" parent="1">
          <mxGeometry x="410" y="570" width="60" height="30" as="geometry" />
        </mxCell>
        <mxCell id="-x42v0ed1FvRVQpBwGEQ-46" value="7&lt;span style=&quot;white-space: pre;&quot;&gt;	&lt;/span&gt;&lt;span style=&quot;white-space: pre;&quot;&gt;	&lt;/span&gt;8" style="text;html=1;strokeColor=none;fillColor=none;align=center;verticalAlign=middle;whiteSpace=wrap;rounded=0;" vertex="1" parent="1">
          <mxGeometry x="410" y="420" width="60" height="30" as="geometry" />
        </mxCell>
        <mxCell id="-x42v0ed1FvRVQpBwGEQ-51" value="5&lt;span style=&quot;white-space: pre;&quot;&gt;	&lt;/span&gt;&lt;span style=&quot;white-space: pre;&quot;&gt;	&lt;/span&gt;7&lt;span style=&quot;white-space: pre;&quot;&gt;	&lt;/span&gt;" style="text;html=1;strokeColor=none;fillColor=none;align=center;verticalAlign=middle;whiteSpace=wrap;rounded=0;" vertex="1" parent="1">
          <mxGeometry x="490" y="280" width="60" height="30" as="geometry" />
        </mxCell>
        <mxCell id="-x42v0ed1FvRVQpBwGEQ-52" value="2&lt;span style=&quot;white-space: pre;&quot;&gt;	&lt;/span&gt;&lt;span style=&quot;white-space: pre;&quot;&gt;	&lt;/span&gt;5" style="text;html=1;strokeColor=none;fillColor=none;align=center;verticalAlign=middle;whiteSpace=wrap;rounded=0;" vertex="1" parent="1">
          <mxGeometry x="330" y="280" width="60" height="30" as="geometry" />
        </mxCell>
        <mxCell id="-x42v0ed1FvRVQpBwGEQ-53" value="1&lt;span style=&quot;white-space: pre;&quot;&gt;	&lt;/span&gt;&lt;span style=&quot;white-space: pre;&quot;&gt;	&lt;/span&gt;4" style="text;html=1;strokeColor=none;fillColor=none;align=center;verticalAlign=middle;whiteSpace=wrap;rounded=0;" vertex="1" parent="1">
          <mxGeometry x="330" y="130" width="60" height="30" as="geometry" />
        </mxCell>
        <mxCell id="-x42v0ed1FvRVQpBwGEQ-54" value="2&lt;span style=&quot;white-space: pre;&quot;&gt;	&lt;/span&gt;&lt;span style=&quot;white-space: pre;&quot;&gt;	&lt;/span&gt;4" style="text;html=1;strokeColor=none;fillColor=none;align=center;verticalAlign=middle;whiteSpace=wrap;rounded=0;" vertex="1" parent="1">
          <mxGeometry x="490" width="60" height="30" as="geometry" />
        </mxCell>
        <mxCell id="-x42v0ed1FvRVQpBwGEQ-55" value="Ha=0" style="text;html=1;strokeColor=none;fillColor=none;align=center;verticalAlign=middle;whiteSpace=wrap;rounded=0;" vertex="1" parent="1">
          <mxGeometry x="750" y="240" width="60" height="30" as="geometry" />
        </mxCell>
        <mxCell id="-x42v0ed1FvRVQpBwGEQ-56" value="Ha=2" style="text;html=1;strokeColor=none;fillColor=none;align=center;verticalAlign=middle;whiteSpace=wrap;rounded=0;" vertex="1" parent="1">
          <mxGeometry x="560" y="-70" width="60" height="30" as="geometry" />
        </mxCell>
        <mxCell id="-x42v0ed1FvRVQpBwGEQ-57" value="Ha=3" style="text;html=1;strokeColor=none;fillColor=none;align=center;verticalAlign=middle;whiteSpace=wrap;rounded=0;" vertex="1" parent="1">
          <mxGeometry x="490" y="490" width="60" height="30" as="geometry" />
        </mxCell>
        <mxCell id="-x42v0ed1FvRVQpBwGEQ-58" value="Ha=2" style="text;html=1;strokeColor=none;fillColor=none;align=center;verticalAlign=middle;whiteSpace=wrap;rounded=0;" vertex="1" parent="1">
          <mxGeometry x="490" y="390" width="60" height="30" as="geometry" />
        </mxCell>
        <mxCell id="-x42v0ed1FvRVQpBwGEQ-59" value="Ha=2" style="text;html=1;strokeColor=none;fillColor=none;align=center;verticalAlign=middle;whiteSpace=wrap;rounded=0;" vertex="1" parent="1">
          <mxGeometry x="390" y="210" width="60" height="30" as="geometry" />
        </mxCell>
        <mxCell id="-x42v0ed1FvRVQpBwGEQ-60" value="Ha=3" style="text;html=1;strokeColor=none;fillColor=none;align=center;verticalAlign=middle;whiteSpace=wrap;rounded=0;" vertex="1" parent="1">
          <mxGeometry x="550" y="250" width="60" height="30" as="geometry" />
        </mxCell>
        <mxCell id="-x42v0ed1FvRVQpBwGEQ-61" value="Ha=1" style="text;html=1;strokeColor=none;fillColor=none;align=center;verticalAlign=middle;whiteSpace=wrap;rounded=0;" vertex="1" parent="1">
          <mxGeometry x="400" y="60" width="60" height="30" as="geometry" />
        </mxCell>
        <mxCell id="-x42v0ed1FvRVQpBwGEQ-62" value="Ha=1" style="text;html=1;strokeColor=none;fillColor=none;align=center;verticalAlign=middle;whiteSpace=wrap;rounded=0;" vertex="1" parent="1">
          <mxGeometry x="560" y="60" width="60" height="30" as="geometry" />
        </mxCell>
        <mxCell id="-x42v0ed1FvRVQpBwGEQ-69" value="Ha=0" style="text;html=1;strokeColor=none;fillColor=none;align=center;verticalAlign=middle;whiteSpace=wrap;rounded=0;" vertex="1" parent="1">
          <mxGeometry x="740" y="60" width="60" height="30" as="geometry" />
        </mxCell>
        <mxCell id="-x42v0ed1FvRVQpBwGEQ-39" value="5&lt;span style=&quot;white-space: pre;&quot;&gt;	&lt;/span&gt;&lt;span style=&quot;white-space: pre;&quot;&gt;	&lt;/span&gt;8" style="text;html=1;strokeColor=none;fillColor=none;align=center;verticalAlign=middle;whiteSpace=wrap;rounded=0;" vertex="1" parent="1">
          <mxGeometry x="670" y="180" width="60" height="20" as="geometry" />
        </mxCell>
        <mxCell id="-x42v0ed1FvRVQpBwGEQ-44" value="&lt;span style=&quot;white-space: pre;&quot;&gt;4	&lt;/span&gt;&lt;span style=&quot;white-space: pre;&quot;&gt;	&lt;/span&gt;5" style="text;html=1;strokeColor=none;fillColor=none;align=center;verticalAlign=middle;whiteSpace=wrap;rounded=0;" vertex="1" parent="1">
          <mxGeometry x="670" y="120" width="60" height="30" as="geometry" />
        </mxCell>
      </root>
    </mxGraphModel>
  </diagram>
</mxfile>
